<svg width="64" height="64" viewBox="0 0 64 64" fill="none" xmlns="http://www.w3.org/2000/svg">
  <defs>
    <linearGradient id="petalGradient" x1="32" y1="0" x2="32" y2="64" gradientUnits="userSpaceOnUse">
      <stop stop-color="#E11D48" />
      <stop offset="1" stop-color="#BE123C" />
    </linearGradient>
  </defs>
  <rect width="64" height="64" rx="12" fill="#FFF0F5"/>
  <g transform="translate(32, 32) scale(0.9)">
      <path d="M0 -30 C10 -30 25 -15 25 0 C25 15 10 30 0 30 C-10 30 -25 15 -25 0 C-25 -15 -10 -30 0 -30Z" fill="url(#petalGradient)" />
      <path d="M0 -30 C10 -30 25 -15 25 0 C25 15 10 30 0 30 C-10 30 -25 15 -25 0 C-25 -15 -10 -30 0 -30Z" transform="rotate(60)" fill="url(#petalGradient)" opacity="0.9"/>
      <path d="M0 -30 C10 -30 25 -15 25 0 C25 15 10 30 0 30 C-10 30 -25 15 -25 0 C-25 -15 -10 -30 0 -30Z" transform="rotate(120)" fill="url(#petalGradient)" opacity="0.9"/>
      <circle r="8" fill="#FCD34D" stroke="#B45309" stroke-width="1"/>
  </g>
</svg>
